<?xml version="1.0" standalone="no"?>
<!DOCTYPE svg PUBLIC "-//W3C//DTD SVG 20010904//EN"
 "http://www.w3.org/TR/2001/REC-SVG-20010904/DTD/svg10.dtd">
<svg version="1.0" xmlns="http://www.w3.org/2000/svg"
 width="512.000000pt" height="512.000000pt" viewBox="0 0 512.000000 512.000000"
 preserveAspectRatio="xMidYMid meet">

<g transform="translate(0.000000,512.000000) scale(0.100000,-0.100000)"
fill="#000000" stroke="none">
<path d="M2260 5111 c-86 -27 -161 -102 -184 -183 -8 -29 -22 -114 -32 -188
-9 -74 -20 -141 -24 -149 -4 -7 -59 -31 -123 -51 -63 -21 -168 -64 -234 -96
-65 -32 -126 -61 -136 -66 -13 -5 -52 19 -161 101 -157 118 -201 137 -290 128
-90 -9 -129 -37 -327 -236 -199 -198 -227 -237 -236 -327 -9 -89 10 -133 128
-290 l108 -143 -65 -135 c-35 -74 -82 -187 -103 -252 -21 -64 -45 -120 -52
-124 -8 -4 -75 -15 -149 -25 -187 -23 -232 -37 -287 -88 -88 -81 -88 -80 -88
-427 0 -347 0 -346 88 -427 55 -51 100 -65 287 -88 74 -10 141 -21 149 -25 7
-4 31 -60 52 -124 21 -65 68 -178 103 -252 l65 -135 -108 -143 c-118 -157
-137 -201 -128 -290 9 -90 37 -129 236 -327 216 -216 241 -233 351 -234 93 0
113 10 283 139 96 72 131 94 144 88 10 -5 71 -34 136 -66 66 -32 171 -75 234
-96 64 -20 119 -44 123 -51 4 -8 15 -75 24 -149 24 -184 38 -232 89 -287 81
-88 80 -88 427 -88 347 0 346 0 427 88 51 55 65 103 89 287 9 74 20 141 24
149 4 7 61 31 126 53 65 22 179 68 252 103 l133 64 126 -95 c170 -129 190
-139 283 -139 110 1 135 18 351 234 195 195 226 236 236 321 11 92 -9 138
-128 295 l-108 144 64 133 c35 73 81 186 103 251 21 64 42 120 45 123 4 4 80
17 171 30 90 13 182 30 203 39 47 20 108 77 136 130 21 39 22 51 22 345 0 294
-1 306 -22 345 -28 53 -89 110 -136 130 -21 9 -113 26 -203 39 -91 13 -168 26
-171 30 -4 3 -24 58 -44 122 -21 63 -68 176 -103 250 l-65 135 95 126 c129
170 139 190 139 283 -1 110 -18 135 -234 351 -198 199 -237 227 -327 236 -89
9 -133 -10 -290 -128 l-143 -108 -135 65 c-74 35 -187 82 -252 103 -64 21
-120 45 -124 52 -4 8 -15 75 -24 149 -24 184 -38 232 -89 287 -80 87 -82 88
-412 90 -159 1 -301 -2 -315 -6z m555 -253 c3 -13 16 -96 29 -185 35 -247 61
-278 293 -357 75 -26 197 -77 271 -113 123 -61 139 -67 196 -66 33 0 77 7 96
15 19 8 96 61 171 117 75 55 143 101 150 101 18 0 349 -331 349 -349 0 -8 -45
-75 -101 -149 -56 -74 -108 -151 -116 -171 -9 -20 -16 -64 -16 -97 -1 -57 5
-73 66 -196 36 -74 87 -196 113 -272 79 -231 115 -260 377 -296 87 -11 165
-24 173 -27 12 -4 14 -48 14 -254 l0 -249 -22 -5 c-13 -3 -96 -16 -185 -29
-248 -36 -278 -61 -357 -292 -26 -75 -76 -196 -113 -271 -61 -123 -67 -139
-66 -196 0 -34 7 -78 16 -98 8 -20 60 -97 116 -171 56 -74 101 -141 101 -149
0 -18 -331 -349 -349 -349 -8 0 -75 45 -149 101 -74 56 -151 108 -171 116 -20
9 -64 16 -97 16 -57 1 -73 -5 -195 -65 -74 -37 -194 -87 -268 -112 -155 -53
-192 -74 -232 -129 -36 -50 -45 -81 -69 -259 -12 -79 -23 -151 -26 -160 -5
-17 -26 -18 -254 -18 l-250 0 -5 22 c-3 13 -16 96 -29 185 -35 247 -61 278
-291 357 -75 25 -196 76 -270 112 -122 60 -140 67 -197 67 -35 0 -79 -7 -99
-15 -20 -9 -97 -61 -171 -117 -74 -56 -141 -101 -149 -101 -18 0 -349 330
-349 349 0 7 46 75 101 150 56 75 109 152 117 171 8 19 14 63 14 98 0 57 -5
74 -65 195 -36 73 -87 195 -113 270 -79 232 -109 257 -357 293 -89 13 -172 26
-184 29 l-23 5 0 250 0 250 23 5 c12 3 95 16 184 29 248 36 278 61 357 293 26
75 77 197 113 270 60 121 65 138 65 195 0 35 -6 79 -15 99 -8 20 -60 97 -116
171 -56 74 -101 141 -101 149 0 18 331 349 349 349 8 0 75 -45 149 -101 74
-56 151 -108 171 -116 20 -9 64 -16 98 -16 56 -1 73 5 197 66 74 37 196 88
271 113 230 79 256 110 291 357 13 89 26 172 29 185 l5 22 250 0 250 0 5 -22z"/>
<path d="M2367 3655 c-429 -81 -771 -398 -884 -820 -24 -90 -27 -117 -27 -275
0 -158 3 -185 27 -275 50 -187 158 -374 293 -509 135 -135 322 -243 509 -293
90 -24 117 -27 275 -27 158 0 185 3 273 27 394 106 698 410 804 804 24 88 27
115 27 273 0 158 -3 185 -27 275 -106 395 -412 699 -805 802 -124 32 -344 41
-465 18z m407 -249 c345 -95 591 -366 647 -710 14 -93 7 -267 -16 -350 -85
-317 -315 -545 -635 -633 -77 -21 -261 -28 -346 -14 -371 63 -658 347 -723
715 -14 76 -14 216 0 292 64 362 340 641 704 713 73 14 298 6 369 -13z"/>
</g>
</svg>
